<svg width="60" height="60" viewBox="0 0 60 60" fill="none" xmlns="http://www.w3.org/2000/svg">
<path d="M30 25.577L7.71237 17.5587L30 25.577ZM30 25.577L52.2945 17.5852L30 25.577ZM30 25.577V52.1978V25.577ZM12.8375 46.4428L27.3375 51.5605C28.3243 51.9088 28.8175 52.0828 29.3235 52.152C29.7725 52.2133 30.2275 52.2133 30.6765 52.152C31.1825 52.0828 31.6757 51.9088 32.6625 51.5605L47.1625 46.4428C49.0842 45.7645 50.045 45.4255 50.7545 44.8173C51.3807 44.2803 51.8648 43.5965 52.1628 42.827C52.5 41.9558 52.5 40.9368 52.5 38.8988V21.1015C52.5 19.0636 52.5 18.0446 52.1628 17.1734C51.8648 16.4039 51.3807 15.7201 50.7545 15.183C50.045 14.5749 49.0842 14.2358 47.1625 13.5575L32.6625 8.43988C31.6757 8.09163 31.1825 7.9175 30.6765 7.8484C30.2275 7.7871 29.7725 7.7871 29.3235 7.8484C28.8175 7.9175 28.3243 8.09163 27.3375 8.43988L12.8375 13.5575C10.9157 14.2358 9.95487 14.5749 9.2456 15.183C8.61915 15.7201 8.13535 16.4039 7.83737 17.1734C7.5 18.0446 7.5 19.0636 7.5 21.1015V38.8988C7.5 40.9368 7.5 41.9558 7.83737 42.827C8.13535 43.5965 8.61915 44.2803 9.2456 44.8173C9.95487 45.4255 10.9157 45.7645 12.8375 46.4428Z" fill="white"/>
<path d="M30 25.577L7.71237 17.5587M30 25.577L52.2945 17.5852M30 25.577V52.1978M12.8375 46.4428L27.3375 51.5605C28.3243 51.9088 28.8175 52.0828 29.3235 52.152C29.7725 52.2133 30.2275 52.2133 30.6765 52.152C31.1825 52.0828 31.6757 51.9088 32.6625 51.5605L47.1625 46.4428C49.0842 45.7645 50.045 45.4255 50.7545 44.8173C51.3807 44.2803 51.8648 43.5965 52.1628 42.827C52.5 41.9558 52.5 40.9368 52.5 38.8988V21.1015C52.5 19.0636 52.5 18.0446 52.1628 17.1734C51.8648 16.4039 51.3807 15.7201 50.7545 15.183C50.045 14.5749 49.0842 14.2358 47.1625 13.5575L32.6625 8.43988C31.6757 8.09163 31.1825 7.9175 30.6765 7.8484C30.2275 7.7871 29.7725 7.7871 29.3235 7.8484C28.8175 7.9175 28.3243 8.09163 27.3375 8.43988L12.8375 13.5575C10.9157 14.2358 9.95488 14.5749 9.2456 15.183C8.61915 15.7201 8.13535 16.4039 7.83737 17.1734C7.5 18.0446 7.5 19.0636 7.5 21.1015V38.8988C7.5 40.9368 7.5 41.9558 7.83737 42.827C8.13535 43.5965 8.61915 44.2803 9.2456 44.8173C9.95488 45.4255 10.9157 45.7645 12.8375 46.4428Z" stroke="#0B2232" stroke-linecap="round" stroke-linejoin="round"/>
</svg>
