<svg width="91" height="93" viewBox="0 0 91 93" fill="none" xmlns="http://www.w3.org/2000/svg">
<path d="M56.4072 46.0546C54.8917 45.7855 53.3058 45.8213 51.755 45.911C48.2307 46.1084 44.7064 46.4493 41.182 46.1264C39.5079 45.9649 37.8163 45.8034 36.1246 45.8393C33.0584 45.8931 30.4856 46.9158 28.9701 49.8942C28.2124 51.3655 28.0362 52.9444 28.0891 54.5771C28.2124 59.1703 30.1684 61.7898 34.4681 63.0996C37.922 64.1403 41.464 64.2838 45.0235 64.212C46.3452 64.212 47.6668 64.2838 48.9884 64.1941C51.7198 64.0326 54.3983 63.6199 56.9887 62.6511C59.6672 61.6463 61.2708 59.7265 61.8523 56.9455C62.0814 55.8689 62.1871 54.7386 62.1695 53.6441C62.1343 49.9301 59.6672 46.6108 56.4072 46.0546ZM39.0674 58.2014C37.922 59.4753 36.2655 59.4932 35.0849 58.2552C34.2214 57.3581 33.728 55.9766 33.728 54.2541C33.7633 53.0879 34.0981 51.814 35.0849 50.7913C36.2655 49.5533 37.922 49.5712 39.0674 50.8272C40.7943 52.7291 40.7943 56.2995 39.0674 58.2014ZM55.0856 58.2911C54.0106 59.4215 52.4599 59.4574 51.3145 58.4167C49.3409 56.5866 49.3409 52.5138 51.3145 50.6657C52.4423 49.6071 53.993 49.643 55.0856 50.7734C56.09 51.814 56.4248 53.1238 56.4777 54.5233C56.4248 55.9407 56.0724 57.2325 55.0856 58.2911Z" fill="white"/>
<path d="M83.1746 0.589355H7.0487C3.15429 0.589355 0 3.801 0 7.76621V85.2762C0 89.2414 3.15429 92.4531 7.0487 92.4531H83.1746C87.069 92.4531 90.2233 89.2414 90.2233 85.2762V7.76621C90.2233 3.801 87.069 0.589355 83.1746 0.589355ZM68.2314 50.5403C67.9847 52.5857 67.5617 54.6849 66.8392 56.6047C64.7246 62.1129 60.4954 65.1451 54.8917 66.0602C51.6846 66.5805 48.3893 66.5985 44.8297 66.8676C41.6402 66.5805 38.1334 66.5446 34.7324 65.9346C28.1419 64.7504 23.666 60.0496 22.362 53.3213C21.6924 49.8943 21.4985 46.4494 22.5382 43.0404C23.0845 41.2821 23.9832 39.7211 25.1462 38.3037C25.3048 38.1243 25.4458 37.8552 25.4282 37.6219C25.2343 34.5359 25.5868 31.4857 26.4855 28.5432C27.2256 26.0851 26.6793 26.2287 29.3578 26.9463C32.5826 27.8076 35.4021 29.5838 38.1687 31.4319C38.4859 31.6472 38.9793 31.7369 39.367 31.6651C43.279 31.0551 47.1734 31.0192 51.0854 31.719C51.3674 31.7728 51.7374 31.6651 52.0017 31.5036C54.3807 29.9247 56.8301 28.5073 59.5086 27.5205C60.4778 27.1617 61.4999 26.9284 62.4867 26.6234C62.9272 26.4978 63.1211 26.6593 63.2797 27.0899C64.4779 30.4989 64.9713 33.9976 64.7951 37.604C64.7775 37.8013 64.8832 38.0705 65.0066 38.2319C68.0199 41.7845 68.7776 46.0188 68.2314 50.5403Z" fill="white"/>
</svg>
