<svg width="93" height="93" viewBox="0 0 93 93" fill="none" xmlns="http://www.w3.org/2000/svg">
<path d="M46.6695 54.5949C51.1192 54.5949 54.7614 50.9706 54.7614 46.503C54.7614 44.7447 54.1873 43.112 53.2363 41.7843C51.7651 39.7568 49.3788 38.4111 46.6875 38.4111C43.9961 38.4111 41.6098 39.7389 40.1386 41.7843C39.1877 43.112 38.6135 44.7447 38.6135 46.503C38.5956 50.9706 42.2199 54.5949 46.6695 54.5949Z" fill="white"/>
<path d="M64.3246 36.635V29.8529V28.8481H63.3198L56.5377 28.8661L56.5736 36.653L64.3246 36.635Z" fill="white"/>
<path d="M85.4245 0.589355H7.91452C3.9493 0.589355 0.737663 3.801 0.737663 7.76621V85.2762C0.737663 89.2414 3.9493 92.4531 7.91452 92.4531H85.4245C89.3897 92.4531 92.6014 89.2414 92.6014 85.2762V7.76621C92.6014 3.801 89.3897 0.589355 85.4245 0.589355ZM69.6355 41.8024V60.6058C69.6355 65.504 65.6523 69.4871 60.7541 69.4871H32.5849C27.6867 69.4871 23.7036 65.504 23.7036 60.6058V41.8024V32.4187C23.7036 27.5205 27.6867 23.5373 32.5849 23.5373H60.7541C65.6523 23.5373 69.6355 27.5205 69.6355 32.4187V41.8024Z" fill="white"/>
<path d="M59.229 46.5213C59.229 53.4469 53.5952 59.0808 46.6695 59.0808C39.7439 59.0808 34.11 53.4469 34.11 46.5213C34.11 44.8527 34.4509 43.2558 35.043 41.8025H28.1891V60.6058C28.1891 63.028 30.1628 65.0017 32.5849 65.0017H60.7541C63.1763 65.0017 65.1499 63.028 65.1499 60.6058V41.8025H58.296C58.9061 43.2558 59.229 44.8527 59.229 46.5213Z" fill="white"/>
</svg>
