<svg width="92" height="92" viewBox="0 0 92 92" fill="none" xmlns="http://www.w3.org/2000/svg">
<path d="M0.243004 11.5727V80.1843C0.243004 86.6606 5.33939 91.757 11.8157 91.757H80.4273C83.5971 91.757 86.6259 90.2404 88.5568 88.3138C90.6245 86.2462 92 83.6275 92 80.1843V11.5727C92 5.09639 86.9036 0 80.4273 0H11.8157C8.37253 0 5.7538 1.3799 3.68615 3.44315C1.75517 5.37413 0.243004 8.40287 0.243004 11.5727ZM12.6445 20.6633C12.6445 16.2547 16.2287 12.3971 20.6374 12.3971C25.1827 12.3971 28.9036 16.2547 28.9036 20.6633C28.9036 25.2086 25.1827 28.7928 20.6374 28.7928C16.2287 28.7928 12.6445 25.2086 12.6445 20.6633ZM34.8244 77.2878V35.2691C34.8244 34.3036 35.7899 33.4792 36.4776 33.4792H48.1869C49.8402 33.4792 49.8402 35.4102 49.8402 36.649C53.1467 33.3425 57.4186 32.5137 61.8273 32.5137C72.5755 32.5137 79.4618 37.6101 79.4618 48.9094V77.2922C79.4618 78.2577 78.633 79.0822 77.8086 79.0822H65.6848C64.7193 79.0822 64.0316 78.1167 64.0316 77.2922V51.6648C64.0316 47.3929 62.7928 45.0519 57.9697 45.0519C51.9078 45.0519 50.3913 49.0461 50.3913 54.4202V77.2922C50.3913 78.2577 49.4258 79.0822 48.4603 79.0822H36.4732C35.7854 79.0822 34.82 78.1167 34.82 77.2922L34.8244 77.2878ZM12.9178 77.2878V35.2691C12.9178 34.3036 13.8833 33.4792 14.5711 33.4792H26.5582C27.6603 33.4792 28.3481 34.1669 28.3481 35.2691V77.2878C28.3481 78.2533 27.5192 79.0777 26.5582 79.0777H14.5711C13.7423 79.0777 12.9178 78.1123 12.9178 77.2878Z" fill="white"/>
</svg>
