<svg width="47" height="59" viewBox="0 0 47 59" fill="none" xmlns="http://www.w3.org/2000/svg">
<path d="M39.4161 21.1897L42.8594 21.1897L34.6484 53.6099L30.5083 53.6099L39.4161 21.1897Z" fill="#8296FF"/>
<path d="M5.24774 21.9843L8.69106 21.9843L17.1669 53.1916L13.4587 53.1916L5.24774 21.9843Z" fill="#8296FF"/>
<path d="M4.81113 13.2694H10.5535L24.0557 46.2489H24.5213L38.0235 13.2694H43.7658V53H39.265V22.814H38.8771L26.4612 53H22.1157L9.69986 22.814H9.31187V53H4.81113V13.2694Z" fill="white"/>
<path d="M21.9346 22.514L26.1729 22.5163L34.666 53.6037L30.4276 53.6015L21.9346 22.514Z" fill="#8296FF"/>
<path d="M22.0841 22.4233L26.1726 22.4184L17.1285 53.1923L13.4195 53.1968L22.0841 22.4233Z" fill="#8296FF"/>
</svg>
