<svg width="60" height="60" viewBox="0 0 60 60" fill="none" xmlns="http://www.w3.org/2000/svg">
<path d="M5.19223 7.51417C4.93324 7.51417 4.71902 7.30464 4.71902 7.04554C4.71902 6.78644 4.9241 6.5769 5.18215 6.5769H5.19223C5.45027 6.5769 5.66086 6.78644 5.66086 7.04554C5.66086 7.30464 5.45027 7.51417 5.19223 7.51417ZM7.06664 7.51417C6.80766 7.51417 6.59344 7.30464 6.59344 7.04554C6.59344 6.78644 6.79852 6.5769 7.05656 6.5769H7.06664C7.32469 6.5769 7.53527 6.78644 7.53527 7.04554C7.53527 7.30464 7.32469 7.51417 7.06664 7.51417ZM8.94105 7.51417C8.68207 7.51417 8.46785 7.30464 8.46785 7.04554C8.46785 6.78644 8.67293 6.5769 8.93098 6.5769H8.94105C9.1991 6.5769 9.40969 6.78644 9.40969 7.04554C9.40969 7.30464 9.19922 7.51417 8.94105 7.51417ZM50.1784 19.698C49.9193 19.698 49.7053 19.4884 49.7053 19.2294C49.7053 18.9704 49.9102 18.7608 50.1683 18.7608H50.1784C50.3009 18.7635 50.4174 18.8141 50.5031 18.9017C50.5887 18.9893 50.6367 19.1069 50.6367 19.2294C50.6367 19.3519 50.5887 19.4695 50.5031 19.5571C50.4174 19.6447 50.3009 19.6953 50.1784 19.698ZM59.5223 40.3019H0.47789C0.416345 40.302 0.355395 40.2899 0.298525 40.2664C0.241654 40.2429 0.189979 40.2083 0.146455 40.1648C0.102931 40.1213 0.068411 40.0696 0.0448694 40.0128C0.0213279 39.9559 0.00922655 39.895 0.00925738 39.8334C0.00922657 39.7719 0.0213271 39.7109 0.0448672 39.6541C0.0684073 39.5972 0.102925 39.5455 0.146448 39.502C0.189971 39.4585 0.241645 39.4239 0.298516 39.4004C0.355387 39.3769 0.41634 39.3648 0.47789 39.3648H59.5223C59.5839 39.3648 59.6448 39.3769 59.7017 39.4004C59.7586 39.4239 59.8102 39.4585 59.8537 39.502C59.8973 39.5455 59.9318 39.5972 59.9553 39.6541C59.9788 39.7109 59.9909 39.7719 59.9909 39.8334C59.9909 39.895 59.9788 39.9559 59.9553 40.0128C59.9317 40.0696 59.8972 40.1213 59.8537 40.1648C59.8102 40.2083 59.7585 40.2428 59.7017 40.2663C59.6448 40.2899 59.5839 40.302 59.5223 40.3019ZM30 44.9863C28.9666 44.9863 28.1256 44.146 28.1256 43.1119C28.1256 42.0777 28.9666 41.2375 30 41.2375C31.0334 41.2375 31.8745 42.0777 31.8745 43.1119C31.8745 44.146 31.0334 44.9863 30 44.9863ZM30 42.1747C29.4829 42.1747 29.0627 42.5957 29.0627 43.1119C29.0627 43.6281 29.4829 44.049 30 44.049C30.517 44.049 30.9373 43.6281 30.9373 43.1119C30.9373 42.5957 30.517 42.1747 30 42.1747ZM22.0392 57.1718C21.9691 57.1717 21.8999 57.1558 21.8367 57.1255C21.7735 57.0951 21.7179 57.0509 21.674 56.9962C21.6301 56.9416 21.599 56.8777 21.583 56.8094C21.567 56.7412 21.5665 56.6702 21.5816 56.6017L23.456 48.1668C23.483 48.0454 23.5571 47.9398 23.662 47.873C23.7668 47.8062 23.8939 47.7838 24.0152 47.8106C24.1365 47.8377 24.2421 47.9118 24.3089 48.0166C24.3756 48.1215 24.3981 48.2485 24.3714 48.3698L22.497 56.8048C22.4738 56.9089 22.4158 57.002 22.3326 57.0687C22.2494 57.1354 22.1459 57.1718 22.0392 57.1718ZM37.9608 57.1718C37.8541 57.1718 37.7507 57.1354 37.6675 57.0687C37.5844 57.0019 37.5264 56.9089 37.5033 56.8048L35.629 48.3698C35.602 48.2485 35.6244 48.1214 35.6912 48.0166C35.7579 47.9118 35.8636 47.8377 35.9849 47.8108C36.1063 47.7839 36.2333 47.8062 36.3382 47.873C36.443 47.9397 36.5171 48.0454 36.544 48.1668L38.4185 56.6017C38.4336 56.6702 38.4331 56.7412 38.4171 56.8095C38.4012 56.8778 38.3701 56.9416 38.3262 56.9963C38.2822 57.051 38.2266 57.0952 38.1634 57.1255C38.1002 57.1559 38.0309 57.1717 37.9608 57.1718Z" fill="white"/>
<path d="M39.3723 57.1718H20.6279C20.5664 57.1718 20.5054 57.1598 20.4485 57.1362C20.3917 57.1127 20.34 57.0782 20.2965 57.0346C20.2529 56.9911 20.2184 56.9394 20.1949 56.8826C20.1713 56.8257 20.1593 56.7647 20.1593 56.7032C20.1593 56.6416 20.1714 56.5807 20.1949 56.5238C20.2185 56.4669 20.253 56.4153 20.2965 56.3718C20.34 56.3283 20.3917 56.2937 20.4486 56.2702C20.5054 56.2467 20.5664 56.2346 20.6279 56.2346H39.3723C39.4338 56.2346 39.4948 56.2467 39.5516 56.2702C39.6085 56.2938 39.6602 56.3283 39.7037 56.3718C39.7472 56.4153 39.7817 56.467 39.8052 56.5238C39.8288 56.5807 39.8409 56.6416 39.8408 56.7032C39.8409 56.7647 39.8288 56.8257 39.8053 56.8825C39.7817 56.9394 39.7472 56.9911 39.7037 57.0346C39.6602 57.0781 39.6085 57.1126 39.5517 57.1362C39.4948 57.1597 39.4338 57.1718 39.3723 57.1718ZM56.7105 37.505H3.28945C3.2279 37.5051 3.16695 37.493 3.11008 37.4694C3.05321 37.4459 3.00153 37.4114 2.95801 37.3679C2.91449 37.3243 2.87997 37.2727 2.85643 37.2158C2.83289 37.1589 2.82079 37.098 2.82082 37.0364V6.1084C2.82079 6.04685 2.83289 5.9859 2.85643 5.92903C2.87997 5.87216 2.91449 5.82048 2.95801 5.77696C3.00153 5.73344 3.05321 5.69892 3.11008 5.67538C3.16695 5.65184 3.2279 5.63974 3.28945 5.63977H56.7105C56.9697 5.63977 57.1793 5.84942 57.1793 6.1084V37.0364C57.1793 37.098 57.1672 37.1589 57.1437 37.2158C57.1201 37.2727 57.0856 37.3244 57.0421 37.3679C56.9985 37.4114 56.9468 37.4459 56.89 37.4695C56.8331 37.493 56.7721 37.5051 56.7105 37.505ZM3.75809 36.5678H56.242V6.57704H3.75809V36.5678Z" fill="white"/>
<path d="M56.7105 46.8772H3.28945C1.4809 46.8772 0.00925827 45.4055 0.00925827 43.597V6.10838C0.00925827 4.29983 1.48102 2.82819 3.28945 2.82819H56.7105C58.5192 2.82819 59.9909 4.29994 59.9909 6.10838V43.5969C59.9909 45.4055 58.5191 46.8772 56.7105 46.8772ZM3.28945 3.76533C1.99711 3.76533 0.946407 4.81651 0.946407 6.10838V43.5969C0.946407 44.8891 1.99711 45.9398 3.28945 45.9398H56.7105C58.003 45.9398 59.0536 44.8891 59.0536 43.5969V6.10838C59.0536 4.81651 58.003 3.76533 56.7105 3.76533H3.28945Z" fill="white"/>
<path d="M56.7105 48.737H3.28945C1.44984 48.737 0.00925738 47.2964 0.00925738 45.4568V43.5824C0.00922657 43.5208 0.0213271 43.4599 0.0448672 43.403C0.0684073 43.3461 0.102925 43.2944 0.146448 43.2509C0.189971 43.2074 0.241645 43.1729 0.298516 43.1493C0.355387 43.1258 0.41634 43.1137 0.47789 43.1137C0.539441 43.1137 0.600394 43.1258 0.657265 43.1493C0.714136 43.1729 0.76581 43.2074 0.809332 43.2509C0.852855 43.2944 0.887373 43.3461 0.910913 43.403C0.934453 43.4599 0.946554 43.5208 0.946523 43.5824V45.4568C0.946523 46.771 1.97531 47.7997 3.28957 47.7997H56.7107C58.0252 47.7997 59.0537 46.771 59.0537 45.4568V43.597C59.0537 43.5355 59.0658 43.4745 59.0893 43.4176C59.1129 43.3607 59.1474 43.3091 59.1909 43.2655C59.2345 43.222 59.2862 43.1875 59.3431 43.164C59.3999 43.1404 59.4609 43.1283 59.5225 43.1284C59.584 43.1283 59.645 43.1404 59.7018 43.164C59.7587 43.1875 59.8104 43.2221 59.8539 43.2656C59.8974 43.3091 59.9319 43.3608 59.9554 43.4176C59.9789 43.4745 59.991 43.5355 59.991 43.597V45.4568C59.9909 47.2964 58.5503 48.737 56.7105 48.737ZM56.7105 8.45143H3.28945C3.03047 8.45143 2.82082 8.24178 2.82082 7.98279C2.82082 7.72381 3.03047 7.51416 3.28945 7.51416H56.7105C56.9696 7.51416 57.1793 7.72381 57.1793 7.98279C57.1793 8.24178 56.9696 8.45143 56.7105 8.45143ZM6.10102 35.6306C6.03947 35.6306 5.97851 35.6185 5.92164 35.595C5.86477 35.5715 5.8131 35.5369 5.76957 35.4934C5.72605 35.4499 5.69153 35.3982 5.66799 35.3413C5.64445 35.2845 5.63235 35.2235 5.63238 35.162V9.85721C5.63238 9.59822 5.84191 9.38857 6.10102 9.38857C6.36012 9.38857 6.56965 9.59822 6.56965 9.85721V35.162C6.56969 35.2235 6.5576 35.2845 6.53407 35.3414C6.51054 35.3982 6.47602 35.4499 6.43249 35.4934C6.38897 35.537 6.33729 35.5715 6.28041 35.595C6.22353 35.6186 6.16257 35.6307 6.10102 35.6306Z" fill="white"/>
<path d="M48.2757 37.505C48.0166 37.505 47.807 37.2954 47.807 37.0364V7.98279C47.807 7.92123 47.8191 7.86027 47.8426 7.80339C47.8662 7.74651 47.9007 7.69483 47.9442 7.65131C47.9878 7.60778 48.0394 7.57327 48.0963 7.54974C48.1532 7.5262 48.2142 7.51411 48.2757 7.51416C48.3373 7.51414 48.3982 7.52626 48.4551 7.5498C48.5119 7.57335 48.5636 7.60787 48.6071 7.65139C48.6506 7.69491 48.6851 7.74658 48.7087 7.80345C48.7322 7.86031 48.7443 7.92125 48.7443 7.98279V37.0364C48.7443 37.0979 48.7322 37.1589 48.7087 37.2157C48.6851 37.2726 48.6506 37.3243 48.6071 37.3678C48.5636 37.4113 48.5119 37.4458 48.4551 37.4694C48.3982 37.4929 48.3373 37.505 48.2757 37.505Z" fill="white"/>
<path d="M56.7105 15.9492H48.2757C48.0166 15.9492 47.807 15.7396 47.807 15.4806C47.807 15.2216 48.0166 15.012 48.2757 15.012H56.7105C56.9697 15.012 57.1793 15.2216 57.1793 15.4806C57.1793 15.7396 56.9697 15.9492 56.7105 15.9492ZM6.10102 13.1374H3.28945C3.03047 13.1374 2.82082 12.9279 2.82082 12.6688C2.82082 12.4097 3.03047 12.2002 3.28945 12.2002H6.10113C6.36012 12.2002 6.56977 12.4097 6.56977 12.6688C6.56977 12.9279 6.36012 13.1374 6.10102 13.1374ZM6.10102 15.9492H3.28945C3.03047 15.9492 2.82082 15.7396 2.82082 15.4806C2.82082 15.2216 3.03047 15.012 3.28945 15.012H6.10113C6.36012 15.012 6.56977 15.2216 6.56977 15.4806C6.56977 15.7396 6.36012 15.9492 6.10102 15.9492ZM6.10102 18.7608H3.28945C3.03047 18.7608 2.82082 18.5513 2.82082 18.2922C2.82082 18.0331 3.03047 17.8235 3.28945 17.8235H6.10113C6.36012 17.8235 6.56977 18.0331 6.56977 18.2922C6.56977 18.5513 6.36012 18.7608 6.10102 18.7608ZM6.10102 21.5725H3.28945C3.2279 21.5725 3.16695 21.5604 3.11008 21.5369C3.05321 21.5133 3.00153 21.4788 2.95801 21.4353C2.91449 21.3918 2.87997 21.3401 2.85643 21.2832C2.83289 21.2263 2.82079 21.1654 2.82082 21.1038C2.82079 21.0423 2.83289 20.9813 2.85643 20.9245C2.87997 20.8676 2.91449 20.8159 2.95801 20.7724C3.00153 20.7289 3.05321 20.6944 3.11008 20.6708C3.16695 20.6473 3.2279 20.6352 3.28945 20.6352H6.10113C6.16268 20.6352 6.22364 20.6473 6.28051 20.6708C6.33738 20.6944 6.38905 20.7289 6.43257 20.7724C6.4761 20.8159 6.51062 20.8676 6.53416 20.9245C6.5577 20.9813 6.5698 21.0423 6.56977 21.1038C6.56978 21.1654 6.55767 21.2264 6.53411 21.2832C6.51056 21.3401 6.47603 21.3918 6.4325 21.4353C6.38897 21.4788 6.33729 21.5133 6.28041 21.5369C6.22353 21.5604 6.16257 21.5725 6.10102 21.5725ZM6.10102 24.384H3.28945C3.2279 24.3841 3.16695 24.372 3.11008 24.3484C3.05321 24.3249 3.00153 24.2904 2.95801 24.2469C2.91449 24.2033 2.87997 24.1517 2.85643 24.0948C2.83289 24.0379 2.82079 23.977 2.82082 23.9154C2.82079 23.8539 2.83289 23.7929 2.85643 23.736C2.87997 23.6792 2.91449 23.6275 2.95801 23.584C3.00153 23.5404 3.05321 23.5059 3.11008 23.4824C3.16695 23.4588 3.2279 23.4467 3.28945 23.4468H6.10113C6.16268 23.4467 6.22364 23.4588 6.28051 23.4824C6.33738 23.5059 6.38905 23.5404 6.43257 23.584C6.4761 23.6275 6.51062 23.6792 6.53416 23.736C6.5577 23.7929 6.5698 23.8539 6.56977 23.9154C6.5698 23.977 6.55769 24.0379 6.53414 24.0948C6.5106 24.1517 6.47607 24.2034 6.43253 24.2469C6.389 24.2904 6.33731 24.3249 6.28043 24.3485C6.22354 24.372 6.16258 24.3841 6.10102 24.384ZM6.10102 27.1957H3.28945C3.2279 27.1958 3.16695 27.1836 3.11008 27.1601C3.05321 27.1366 3.00153 27.1021 2.95801 27.0585C2.91449 27.015 2.87997 26.9633 2.85643 26.9065C2.83289 26.8496 2.82079 26.7886 2.82082 26.7271C2.82079 26.6655 2.83289 26.6046 2.85643 26.5477C2.87997 26.4908 2.91449 26.4392 2.95801 26.3956C3.00153 26.3521 3.05321 26.3176 3.11008 26.2941C3.16695 26.2705 3.2279 26.2584 3.28945 26.2585H6.10113C6.16268 26.2584 6.22364 26.2705 6.28051 26.2941C6.33738 26.3176 6.38905 26.3521 6.43257 26.3956C6.4761 26.4392 6.51062 26.4908 6.53416 26.5477C6.5577 26.6046 6.5698 26.6655 6.56977 26.7271C6.56978 26.7886 6.55767 26.8496 6.53411 26.9065C6.51056 26.9633 6.47603 27.015 6.4325 27.0585C6.38897 27.1021 6.33729 27.1366 6.28041 27.1601C6.22353 27.1836 6.16257 27.1958 6.10102 27.1957ZM6.10102 30.0073H3.28945C3.2279 30.0073 3.16695 29.9952 3.11008 29.9717C3.05321 29.9481 3.00153 29.9136 2.95801 29.8701C2.91449 29.8266 2.87997 29.7749 2.85643 29.718C2.83289 29.6612 2.82079 29.6002 2.82082 29.5386C2.82079 29.4771 2.83289 29.4161 2.85643 29.3593C2.87997 29.3024 2.91449 29.2507 2.95801 29.2072C3.00153 29.1637 3.05321 29.1292 3.11008 29.1056C3.16695 29.0821 3.2279 29.07 3.28945 29.07H6.10113C6.16268 29.07 6.22364 29.0821 6.28051 29.1056C6.33738 29.1292 6.38905 29.1637 6.43257 29.2072C6.4761 29.2507 6.51062 29.3024 6.53416 29.3593C6.5577 29.4161 6.5698 29.4771 6.56977 29.5386C6.5698 29.6002 6.55769 29.6612 6.53414 29.7181C6.5106 29.7749 6.47607 29.8266 6.43253 29.8701C6.389 29.9137 6.33731 29.9482 6.28043 29.9717C6.22354 29.9952 6.16258 30.0073 6.10102 30.0073ZM6.10102 32.819H3.28945C3.22791 32.819 3.16696 32.8069 3.11009 32.7834C3.05322 32.7599 3.00154 32.7254 2.95802 32.6818C2.91449 32.6383 2.87997 32.5867 2.85643 32.5298C2.83289 32.4729 2.82079 32.412 2.82082 32.3504C2.82079 32.2889 2.83289 32.2279 2.85643 32.1711C2.87997 32.1142 2.91449 32.0625 2.95801 32.019C3.00153 31.9755 3.05321 31.941 3.11008 31.9174C3.16695 31.8939 3.2279 31.8818 3.28945 31.8818H6.10113C6.16268 31.8818 6.22364 31.8939 6.28051 31.9174C6.33738 31.941 6.38905 31.9755 6.43257 32.019C6.4761 32.0625 6.51062 32.1142 6.53416 32.1711C6.5577 32.2279 6.5698 32.2889 6.56977 32.3504C6.56978 32.412 6.55767 32.4729 6.53411 32.5298C6.51056 32.5867 6.47603 32.6383 6.43249 32.6819C6.38896 32.7254 6.33728 32.7599 6.2804 32.7834C6.22352 32.8069 6.16257 32.819 6.10102 32.819ZM6.10102 35.6306H3.28945C3.2279 35.6307 3.16695 35.6186 3.11008 35.595C3.05321 35.5715 3.00153 35.537 2.95801 35.4935C2.91449 35.4499 2.87997 35.3983 2.85643 35.3414C2.83289 35.2845 2.82079 35.2236 2.82082 35.162C2.82079 35.1005 2.83289 35.0395 2.85643 34.9827C2.87997 34.9258 2.91449 34.8741 2.95802 34.8306C3.00154 34.7871 3.05322 34.7526 3.11009 34.7291C3.16696 34.7055 3.22791 34.6934 3.28945 34.6935H6.10113C6.16268 34.6934 6.22363 34.7055 6.2805 34.7291C6.33737 34.7526 6.38904 34.7871 6.43257 34.8306C6.47609 34.8741 6.51061 34.9258 6.53415 34.9827C6.55769 35.0395 6.5698 35.1005 6.56977 35.162C6.5698 35.2236 6.55769 35.2845 6.53414 35.3414C6.5106 35.3983 6.47607 35.45 6.43253 35.4935C6.389 35.537 6.33731 35.5715 6.28043 35.5951C6.22354 35.6186 6.16258 35.6307 6.10102 35.6306ZM6.10102 10.3259H3.28945C3.03047 10.3259 2.82082 10.1162 2.82082 9.85724C2.82082 9.59826 3.03047 9.38861 3.28945 9.38861H6.10113C6.36012 9.38861 6.56977 9.59826 6.56977 9.85724C6.56977 10.1162 6.36012 10.3259 6.10102 10.3259ZM54.8363 11.263H50.1502C49.8911 11.263 49.6816 11.0535 49.6816 10.7944C49.6816 10.5353 49.8911 10.3258 50.1502 10.3258H54.8363C55.0951 10.3258 55.3048 10.5353 55.3048 10.7944C55.3048 11.0535 55.0951 11.263 54.8363 11.263ZM54.8363 13.1374H50.1502C49.8911 13.1374 49.6816 12.9279 49.6816 12.6688C49.6816 12.4097 49.8911 12.2002 50.1502 12.2002H54.8363C55.0951 12.2002 55.3048 12.4097 55.3048 12.6688C55.3048 12.9279 55.0951 13.1374 54.8363 13.1374ZM54.8363 19.6981H52.0247C51.7656 19.6981 51.5559 19.4884 51.5559 19.2294C51.5559 19.1679 51.568 19.1069 51.5916 19.05C51.6151 18.9932 51.6496 18.9415 51.6932 18.8979C51.7367 18.8544 51.7884 18.8199 51.8453 18.7964C51.9022 18.7728 51.9631 18.7608 52.0247 18.7608H54.8363C54.8978 18.7608 54.9587 18.7729 55.0156 18.7964C55.0724 18.82 55.1241 18.8545 55.1676 18.898C55.2111 18.9416 55.2456 18.9932 55.2692 19.0501C55.2927 19.1069 55.3048 19.1679 55.3048 19.2294C55.3048 19.291 55.2927 19.3519 55.2692 19.4088C55.2456 19.4656 55.2111 19.5173 55.1676 19.5608C55.1241 19.6044 55.0724 19.6389 55.0156 19.6624C54.9587 19.686 54.8978 19.6981 54.8363 19.6981ZM50.1784 22.5096C49.9193 22.5096 49.7053 22.3001 49.7053 22.041C49.7053 21.7819 49.9102 21.5724 50.1683 21.5724H50.1784C50.3009 21.5751 50.4174 21.6257 50.5031 21.7133C50.5887 21.8009 50.6367 21.9185 50.6367 22.041C50.6367 22.1635 50.5887 22.2811 50.5031 22.3687C50.4174 22.4563 50.3009 22.5069 50.1784 22.5096ZM54.8363 22.5096H52.0247C51.7656 22.5096 51.5559 22.3001 51.5559 22.041C51.5559 21.7819 51.7656 21.5724 52.0247 21.5724H54.8363C55.0951 21.5724 55.3048 21.7819 55.3048 22.041C55.3048 22.3001 55.0951 22.5096 54.8363 22.5096ZM50.1784 25.3213C49.9193 25.3213 49.7053 25.1117 49.7053 24.8527C49.7053 24.5937 49.9102 24.384 50.1683 24.384H50.1784C50.3009 24.3868 50.4174 24.4374 50.5031 24.5249C50.5887 24.6125 50.6367 24.7302 50.6367 24.8527C50.6367 24.9752 50.5887 25.0928 50.5031 25.1804C50.4174 25.268 50.3009 25.3186 50.1784 25.3213ZM54.8363 25.3213H52.0247C51.7656 25.3213 51.5559 25.1117 51.5559 24.8527C51.5559 24.7911 51.568 24.7301 51.5916 24.6733C51.6151 24.6164 51.6496 24.5647 51.6932 24.5212C51.7367 24.4777 51.7884 24.4431 51.8453 24.4196C51.9022 24.3961 51.9631 24.384 52.0247 24.384H54.8363C54.8978 24.384 54.9587 24.3961 55.0156 24.4197C55.0724 24.4432 55.1241 24.4778 55.1676 24.5213C55.2111 24.5648 55.2456 24.6165 55.2692 24.6733C55.2927 24.7302 55.3048 24.7911 55.3048 24.8527C55.3048 24.9142 55.2927 24.9752 55.2692 25.032C55.2456 25.0889 55.2111 25.1406 55.1676 25.1841C55.1241 25.2276 55.0724 25.2621 55.0156 25.2857C54.9587 25.3092 54.8978 25.3213 54.8363 25.3213Z" fill="white"/>
<path d="M50.1784 28.1328C49.9193 28.1328 49.7053 27.9233 49.7053 27.6642C49.7053 27.4052 49.9102 27.1956 50.1683 27.1956H50.1784C50.3027 27.1956 50.4219 27.2449 50.5098 27.3328C50.5977 27.4207 50.647 27.5399 50.647 27.6642C50.647 27.7885 50.5977 27.9077 50.5098 27.9956C50.4219 28.0834 50.3027 28.1328 50.1784 28.1328Z" fill="white"/>
<path d="M54.8363 28.1328H52.0247C51.7656 28.1328 51.5559 27.9233 51.5559 27.6642C51.5559 27.6026 51.568 27.5417 51.5916 27.4848C51.6151 27.4279 51.6496 27.3762 51.6932 27.3327C51.7367 27.2892 51.7884 27.2547 51.8453 27.2311C51.9022 27.2076 51.9631 27.1955 52.0247 27.1956H54.8363C54.8978 27.1955 54.9587 27.2077 55.0156 27.2312C55.0724 27.2547 55.1241 27.2893 55.1676 27.3328C55.2111 27.3763 55.2456 27.428 55.2692 27.4848C55.2927 27.5417 55.3048 27.6026 55.3048 27.6642C55.3048 27.7257 55.2927 27.7867 55.2692 27.8436C55.2457 27.9004 55.2112 27.9521 55.1677 27.9956C55.1241 28.0391 55.0725 28.0737 55.0156 28.0972C54.9587 28.1208 54.8978 28.1329 54.8363 28.1328Z" fill="white"/>
<path d="M50.1784 30.9447C49.9193 30.9447 49.7053 30.735 49.7053 30.476C49.7053 30.217 49.9102 30.0074 50.1683 30.0074H50.1784C50.3009 30.0101 50.4174 30.0607 50.5031 30.1483C50.5887 30.2359 50.6367 30.3535 50.6367 30.476C50.6367 30.5985 50.5887 30.7162 50.5031 30.8038C50.4174 30.8913 50.3009 30.9419 50.1784 30.9447Z" fill="white"/>
<path d="M54.8363 30.9447H52.0247C51.7656 30.9447 51.5559 30.735 51.5559 30.476C51.5559 30.217 51.7656 30.0074 52.0247 30.0074H54.8363C55.0951 30.0074 55.3048 30.217 55.3048 30.476C55.3048 30.735 55.0951 30.9447 54.8363 30.9447Z" fill="white"/>
<path d="M50.1784 33.7562C49.9193 33.7562 49.7053 33.5466 49.7053 33.2876C49.7053 33.0286 49.9102 32.819 50.1683 32.819H50.1784C50.3009 32.8217 50.4174 32.8723 50.5031 32.9599C50.5887 33.0475 50.6367 33.1651 50.6367 33.2876C50.6367 33.4101 50.5887 33.5277 50.5031 33.6153C50.4174 33.7029 50.3009 33.7535 50.1784 33.7562Z" fill="white"/>
<path d="M54.8363 33.7562H52.0247C51.7656 33.7562 51.5559 33.5466 51.5559 33.2876C51.5559 33.0286 51.7656 32.819 52.0247 32.819H54.8363C55.0951 32.819 55.3048 33.0286 55.3048 33.2876C55.3048 33.5466 55.0951 33.7562 54.8363 33.7562Z" fill="white"/>
<path d="M27.6103 22.5096C27.4942 22.5093 27.3822 22.466 27.2962 22.388C27.2101 22.3099 27.156 22.2028 27.1444 22.0872C26.6941 17.5193 22.8848 14.0748 18.2848 14.0748C18.0258 14.0748 17.8161 13.8651 17.8161 13.6061C17.8161 13.3472 18.0258 13.1375 18.2848 13.1375C23.3689 13.1375 27.5791 16.9454 28.0779 21.9949C28.0842 22.0601 28.0768 22.1259 28.0561 22.188C28.0355 22.2501 28.0021 22.3073 27.9581 22.3558C27.914 22.4042 27.8603 22.443 27.8004 22.4694C27.7406 22.4959 27.6758 22.5096 27.6103 22.5096ZM18.3077 32.8189C18.2462 32.819 18.1852 32.8069 18.1284 32.7834C18.0715 32.7598 18.0198 32.7253 17.9763 32.6818C17.9328 32.6383 17.8983 32.5866 17.8747 32.5298C17.8512 32.4729 17.8391 32.4119 17.8391 32.3504C17.8391 32.2889 17.8512 32.2279 17.8747 32.171C17.8983 32.1142 17.9328 32.0625 17.9763 32.019C18.0198 31.9754 18.0715 31.9409 18.1284 31.9174C18.1852 31.8938 18.2462 31.8817 18.3077 31.8818C22.9077 31.8818 26.7179 28.4372 27.1682 23.8697C27.1948 23.612 27.4309 23.4322 27.6807 23.4495C27.8045 23.4618 27.9183 23.5227 27.9972 23.6188C28.0762 23.7149 28.1138 23.8383 28.1018 23.9621C27.6029 29.0111 23.3919 32.8189 18.3077 32.8189ZM33.2803 26.2584C33.1789 26.2585 33.0803 26.2255 32.9993 26.1645L29.2505 23.353C29.1923 23.3094 29.145 23.2528 29.1125 23.1877C29.08 23.1227 29.063 23.0509 29.063 22.9782C29.063 22.9055 29.08 22.8338 29.1125 22.7687C29.145 22.7037 29.1923 22.6471 29.2505 22.6034L32.9993 19.7918C33.0519 19.7522 33.1123 19.7242 33.1766 19.7096C33.2408 19.695 33.3074 19.6942 33.372 19.7072L38.0578 20.6443C38.1641 20.6654 38.2599 20.7228 38.3286 20.8066C38.3974 20.8903 38.435 20.9954 38.435 21.1038V24.8526C38.435 24.961 38.3974 25.0661 38.3286 25.1498C38.2598 25.2336 38.1641 25.291 38.0578 25.3121L33.372 26.2493C33.3418 26.2553 33.3111 26.2583 33.2803 26.2584ZM30.3122 22.9782L33.3939 25.2893L37.4978 24.4687V21.4877L33.3939 20.6672L30.3122 22.9782Z" fill="white"/>
<path d="M37.9663 26.2584C37.9047 26.2585 37.8438 26.2464 37.7869 26.2228C37.7301 26.1993 37.6784 26.1648 37.6349 26.1212C37.5914 26.0777 37.5569 26.026 37.5333 25.9692C37.5098 25.9123 37.4977 25.8514 37.4978 25.7898V20.1666C37.4977 20.105 37.5098 20.0441 37.5334 19.9872C37.5569 19.9304 37.5914 19.8787 37.6349 19.8352C37.6784 19.7916 37.7301 19.7571 37.7869 19.7336C37.8438 19.71 37.9047 19.6979 37.9663 19.6979C38.2254 19.6979 38.435 19.9075 38.435 20.1666V25.7898C38.4351 25.8514 38.423 25.9123 38.3994 25.9692C38.3759 26.0261 38.3413 26.0778 38.2978 26.1213C38.2543 26.1648 38.2026 26.1993 38.1457 26.2229C38.0888 26.2464 38.0278 26.2585 37.9663 26.2584ZM34.2173 23.4469H29.5314C29.4698 23.4469 29.4089 23.4348 29.352 23.4113C29.2951 23.3877 29.2434 23.3532 29.1999 23.3097C29.1564 23.2662 29.1219 23.2145 29.0983 23.1576C29.0748 23.1008 29.0627 23.0398 29.0627 22.9782C29.0627 22.9167 29.0748 22.8557 29.0983 22.7989C29.1219 22.742 29.1564 22.6903 29.1999 22.6468C29.2434 22.6033 29.2951 22.5688 29.352 22.5452C29.4089 22.5217 29.4698 22.5096 29.5314 22.5096H34.2173C34.4764 22.5096 34.6861 22.7193 34.6861 22.9782C34.6861 23.0398 34.674 23.1008 34.6505 23.1576C34.6269 23.2145 34.5924 23.2662 34.5489 23.3097C34.5053 23.3533 34.4536 23.3878 34.3968 23.4113C34.3399 23.4348 34.2789 23.4469 34.2173 23.4469ZM27.657 22.5032C27.5954 22.5032 27.5344 22.4911 27.4776 22.4676C27.4207 22.444 27.369 22.4095 27.3255 22.366C27.282 22.3225 27.2475 22.2708 27.2239 22.2139C27.2004 22.157 27.1883 22.0961 27.1883 22.0345V15.4805C27.1883 15.4189 27.2004 15.358 27.2239 15.3011C27.2475 15.2442 27.282 15.1926 27.3255 15.149C27.369 15.1055 27.4207 15.071 27.4776 15.0475C27.5344 15.0239 27.5954 15.0118 27.657 15.0118C27.7185 15.0118 27.7795 15.0239 27.8363 15.0475C27.8932 15.071 27.9449 15.1055 27.9884 15.149C28.0319 15.1926 28.0664 15.2442 28.09 15.3011C28.1135 15.358 28.1256 15.4189 28.1256 15.4805V22.0345C28.1256 22.0961 28.1135 22.157 28.09 22.2139C28.0664 22.2708 28.0319 22.3225 27.9884 22.366C27.9449 22.4095 27.8932 22.444 27.8363 22.4676C27.7795 22.4911 27.7185 22.5032 27.657 22.5032Z" fill="white"/>
<path d="M27.657 15.9492C26.8818 15.9492 26.2511 15.3187 26.2511 14.5433C26.2511 13.768 26.8816 13.1375 27.657 13.1375C28.4323 13.1375 29.0627 13.768 29.0627 14.5433C29.0627 15.3187 28.4323 15.9492 27.657 15.9492ZM27.657 14.0747C27.3988 14.0747 27.1883 14.2847 27.1883 14.5433C27.1883 14.802 27.3988 15.012 27.657 15.012C27.915 15.012 28.1256 14.802 28.1256 14.5433C28.1256 14.2847 27.915 14.0747 27.657 14.0747ZM27.657 30.9419C27.5954 30.9419 27.5345 30.9298 27.4776 30.9063C27.4207 30.8827 27.369 30.8482 27.3255 30.8047C27.282 30.7612 27.2475 30.7095 27.2239 30.6526C27.2004 30.5957 27.1883 30.5348 27.1883 30.4732V23.9191C27.1883 23.8575 27.2004 23.7965 27.2239 23.7397C27.2475 23.6828 27.282 23.6311 27.3255 23.5876C27.369 23.5441 27.4207 23.5096 27.4776 23.486C27.5345 23.4625 27.5954 23.4504 27.657 23.4504C27.7185 23.4504 27.7795 23.4625 27.8363 23.486C27.8932 23.5096 27.9449 23.5441 27.9884 23.5876C28.0319 23.6311 28.0664 23.6828 28.09 23.7397C28.1135 23.7965 28.1256 23.8575 28.1256 23.9191V30.4732C28.1256 30.5348 28.1135 30.5957 28.09 30.6526C28.0664 30.7095 28.0319 30.7612 27.9884 30.8047C27.9449 30.8482 27.8932 30.8827 27.8363 30.9063C27.7795 30.9298 27.7185 30.9419 27.657 30.9419Z" fill="white"/>
<path d="M27.657 32.8161C26.8818 32.8161 26.2511 32.1855 26.2511 31.4103C26.2511 30.6351 26.8816 30.0046 27.657 30.0046C28.4323 30.0046 29.0627 30.6351 29.0627 31.4103C29.0627 32.1855 28.4323 32.8161 27.657 32.8161ZM27.657 30.9418C27.5327 30.9418 27.4135 30.9912 27.3257 31.0791C27.2378 31.1669 27.1884 31.2861 27.1883 31.4103C27.1884 31.5346 27.2378 31.6538 27.3256 31.7416C27.4135 31.8295 27.5327 31.8789 27.657 31.879C27.7812 31.8789 27.9004 31.8295 27.9882 31.7416C28.0761 31.6537 28.1255 31.5346 28.1256 31.4103C28.1255 31.2861 28.0761 31.167 27.9882 31.0791C27.9003 30.9913 27.7812 30.9419 27.657 30.9418ZM39.8408 25.3213H37.9663C37.9047 25.3213 37.8438 25.3092 37.787 25.2856C37.7301 25.2621 37.6784 25.2276 37.6349 25.184C37.5914 25.1405 37.5569 25.0889 37.5334 25.032C37.5098 24.9751 37.4977 24.9142 37.4978 24.8526V21.1038C37.4977 21.0423 37.5098 20.9813 37.5334 20.9245C37.5569 20.8676 37.5914 20.8159 37.6349 20.7724C37.6784 20.7289 37.7301 20.6944 37.787 20.6708C37.8438 20.6473 37.9047 20.6352 37.9663 20.6352H39.8408C39.9024 20.6351 39.9633 20.6472 40.0202 20.6708C40.077 20.6943 40.1287 20.7289 40.1722 20.7724C40.2157 20.8159 40.2502 20.8676 40.2738 20.9244C40.2973 20.9813 40.3094 21.0423 40.3093 21.1038V24.8526C40.3094 24.9142 40.2973 24.9751 40.2738 25.032C40.2502 25.0889 40.2157 25.1406 40.1722 25.1841C40.1287 25.2276 40.077 25.2621 40.0202 25.2857C39.9633 25.3092 39.9024 25.3213 39.8408 25.3213ZM38.435 24.384H39.3723V21.5724H38.435V24.384ZM18.2849 15.0119H16.4105C16.3489 15.012 16.288 14.9999 16.2311 14.9763C16.1742 14.9528 16.1225 14.9183 16.079 14.8747C16.0355 14.8312 16.001 14.7795 15.9774 14.7227C15.9539 14.6658 15.9418 14.6049 15.9418 14.5433V12.6689C15.9418 12.6073 15.9539 12.5464 15.9774 12.4895C16.001 12.4326 16.0355 12.381 16.079 12.3374C16.1225 12.2939 16.1742 12.2594 16.2311 12.2359C16.288 12.2123 16.3489 12.2002 16.4105 12.2003H18.2849C18.3464 12.2002 18.4074 12.2123 18.4643 12.2359C18.5211 12.2594 18.5728 12.2939 18.6163 12.3374C18.6598 12.381 18.6944 12.4326 18.7179 12.4895C18.7414 12.5464 18.7535 12.6073 18.7535 12.6689V14.5433C18.7535 14.6049 18.7414 14.6658 18.7179 14.7227C18.6944 14.7795 18.6598 14.8312 18.6163 14.8747C18.5728 14.9183 18.5211 14.9528 18.4643 14.9763C18.4074 14.9999 18.3464 15.012 18.2849 15.0119ZM16.8791 14.0747H17.8162V13.1374H16.8791V14.0747ZM18.2849 33.7562H16.4105C16.3489 33.7562 16.288 33.7441 16.2311 33.7206C16.1742 33.697 16.1225 33.6625 16.079 33.619C16.0355 33.5755 16.001 33.5238 15.9774 33.4669C15.9539 33.4101 15.9418 33.3491 15.9418 33.2876V31.4131C15.9418 31.3516 15.9539 31.2907 15.9774 31.2338C16.001 31.1769 16.0355 31.1253 16.079 31.0817C16.1226 31.0382 16.1742 31.0037 16.2311 30.9802C16.288 30.9567 16.3489 30.9446 16.4105 30.9446H18.2849C18.3464 30.9446 18.4074 30.9567 18.4642 30.9802C18.5211 31.0037 18.5728 31.0382 18.6163 31.0817C18.6598 31.1253 18.6944 31.1769 18.7179 31.2338C18.7414 31.2907 18.7535 31.3516 18.7535 31.4131V33.2876C18.7535 33.3491 18.7414 33.4101 18.7179 33.4669C18.6944 33.5238 18.6598 33.5755 18.6163 33.619C18.5728 33.6625 18.5211 33.697 18.4643 33.7206C18.4074 33.7441 18.3464 33.7562 18.2849 33.7562ZM16.8791 32.8189H17.8162V31.8818H16.8791V32.8189ZM28.5941 24.384H26.7197C26.6581 24.384 26.5972 24.3719 26.5403 24.3484C26.4834 24.3249 26.4318 24.2903 26.3882 24.2468C26.3447 24.2033 26.3102 24.1516 26.2867 24.0947C26.2631 24.0379 26.251 23.9769 26.2511 23.9154V22.041C26.251 21.9794 26.2631 21.9185 26.2867 21.8616C26.3102 21.8047 26.3447 21.753 26.3882 21.7095C26.4318 21.666 26.4834 21.6315 26.5403 21.6079C26.5972 21.5844 26.6581 21.5723 26.7197 21.5723H28.5941C28.6557 21.5723 28.7166 21.5844 28.7735 21.6079C28.8304 21.6314 28.8821 21.666 28.9256 21.7095C28.9691 21.753 29.0036 21.8047 29.0272 21.8616C29.0507 21.9184 29.0628 21.9794 29.0627 22.041V23.9154C29.0628 23.9769 29.0507 24.0379 29.0272 24.0948C29.0036 24.1516 28.9691 24.2033 28.9256 24.2469C28.8821 24.2904 28.8304 24.3249 28.7735 24.3484C28.7166 24.372 28.6557 24.3841 28.5941 24.384ZM27.1883 23.4469H28.1256V22.5096H27.1883V23.4469Z" fill="white"/>
</svg>
